<?xml version="1.0"?><svg xmlns="http://www.w3.org/2000/svg" xmlns:xlink="http://www.w3.org/1999/xlink" viewBox="215.92 66.63 87.16 41.79" preserveAspectRatio="xMidYMid" width="100%" height="100%"><clipPath id="420"><rect x="1.08" y="1.08" width="537.84" height="717.59" /></clipPath><g id="drawing"><rect x="215.92" y="66.63" width="100%" height="100%" fill="rgb(255, 255, 255)" /><g id="page" clip-path="url(#420)"><g id="Spline"><path d="M217.5 79.35 C217.5 66.97 259.5 66.63 259.5 79.35 " stroke="rgb(24, 69, 100)" stroke-width="2.16" fill-rule="evenodd" stroke-linejoin="bevel" fill="none" shape-rendering="geometricPrecision" /></g><g id="Spline"><path d="M259.5 79.35 C259.5 66.97 301.5 66.63 301.5 79.35 " stroke="rgb(24, 69, 100)" stroke-width="2.16" fill-rule="evenodd" stroke-linejoin="bevel" fill="none" shape-rendering="geometricPrecision" /></g><g id="Solid"><path d="M258.42 79.5 L258.42 79.5 L259.5 79.5 L260.58 79.5 L260.58 101.1 L259.5 101.1 L258.42 101.1 Z" stroke="rgb(24, 69, 100)" stroke-width="0" fill-rule="evenodd" stroke-linejoin="miter" fill="rgb(24, 69, 100)" shape-rendering="geometricPrecision" /></g><g id="Solid"><path d="M300.42 79.5 L300.42 79.5 L301.5 79.5 L302.58 79.5 L302.58 101.1 L301.5 101.1 L300.42 101.1 Z" stroke="rgb(24, 69, 100)" stroke-width="0" fill-rule="evenodd" stroke-linejoin="miter" fill="rgb(24, 69, 100)" shape-rendering="geometricPrecision" /></g><g id="Solid"><path d="M216.42 79.5 L216.42 79.5 L217.5 79.5 L218.58 79.5 L218.58 101.1 L217.5 101.1 L216.42 101.1 Z" stroke="rgb(24, 69, 100)" stroke-width="0" fill-rule="evenodd" stroke-linejoin="miter" fill="rgb(24, 69, 100)" shape-rendering="geometricPrecision" /></g><g id="Spline"><path d="M217.5 106.85 C217.5 94.47 259.5 94.13 259.5 106.85 " stroke="rgb(24, 69, 100)" stroke-width="2.16" fill-rule="evenodd" stroke-linejoin="bevel" fill="none" shape-rendering="geometricPrecision" /></g><g id="Spline"><path d="M259.5 106.85 C259.5 94.47 301.5 94.13 301.5 106.85 " stroke="rgb(24, 69, 100)" stroke-width="2.16" fill-rule="evenodd" stroke-linejoin="bevel" fill="none" shape-rendering="geometricPrecision" /></g><g id="Solid"><path d="M258.42 85.5 L258.42 85.5 L259.5 85.5 L260.58 85.5 L260.58 107.1 L259.5 107.1 L258.42 107.1 Z" stroke="rgb(24, 69, 100)" stroke-width="0" fill-rule="evenodd" stroke-linejoin="miter" fill="rgb(24, 69, 100)" shape-rendering="geometricPrecision" /></g><g id="Solid"><path d="M300.42 85.5 L300.42 85.5 L301.5 85.5 L302.58 85.5 L302.58 107.1 L301.5 107.1 L300.42 107.1 Z" stroke="rgb(24, 69, 100)" stroke-width="0" fill-rule="evenodd" stroke-linejoin="miter" fill="rgb(24, 69, 100)" shape-rendering="geometricPrecision" /></g><g id="Solid"><path d="M216.42 85.5 L216.42 85.5 L217.5 85.5 L218.58 85.5 L218.58 107.1 L217.5 107.1 L216.42 107.1 Z" stroke="rgb(24, 69, 100)" stroke-width="0" fill-rule="evenodd" stroke-linejoin="miter" fill="rgb(24, 69, 100)" shape-rendering="geometricPrecision" /></g><g id="Spline"><path d="M222.5 82.35 C222.5 72.99 254.25 72.74 254.25 82.35 " stroke="rgb(24, 69, 100)" stroke-width="2.16" fill-rule="evenodd" stroke-linejoin="bevel" fill="none" shape-rendering="geometricPrecision" /></g><g id="Spline"><path d="M222.5 89.35 C222.5 79.99 254.25 79.74 254.25 89.35 " stroke="rgb(24, 69, 100)" stroke-width="2.16" fill-rule="evenodd" stroke-linejoin="bevel" fill="none" shape-rendering="geometricPrecision" /></g><g id="Spline"><path d="M222.5 96.35 C222.5 86.99 254.25 86.74 254.25 96.35 " stroke="rgb(24, 69, 100)" stroke-width="2.16" fill-rule="evenodd" stroke-linejoin="bevel" fill="none" shape-rendering="geometricPrecision" /></g><g id="Spline"><path d="M264.5 82.35 C264.5 72.99 296.25 72.74 296.25 82.35 " stroke="rgb(24, 69, 100)" stroke-width="2.16" fill-rule="evenodd" stroke-linejoin="bevel" fill="none" shape-rendering="geometricPrecision" /></g><g id="Spline"><path d="M264.5 89.35 C264.5 79.99 296.25 79.74 296.25 89.35 " stroke="rgb(24, 69, 100)" stroke-width="2.16" fill-rule="evenodd" stroke-linejoin="bevel" fill="none" shape-rendering="geometricPrecision" /></g><g id="Spline"><path d="M264.5 96.35 C264.5 86.99 296.25 86.74 296.25 96.35 " stroke="rgb(24, 69, 100)" stroke-width="2.16" fill-rule="evenodd" stroke-linejoin="bevel" fill="none" shape-rendering="geometricPrecision" /></g></g></g></svg>