<?xml version="1.0"?><svg xmlns="http://www.w3.org/2000/svg" xmlns:xlink="http://www.w3.org/1999/xlink" viewBox="56.4 237.77 129 64.94" preserveAspectRatio="xMidYMid" width="100%" height="100%"><clipPath id="420"><rect x="1.08" y="1.08" width="537.84" height="717.59" /></clipPath><g id="drawing"><rect x="56.4" y="237.77" width="100%" height="100%" fill="rgb(255, 255, 255)" /><g id="page" clip-path="url(#420)"><g><text xml:space="preserve" text-anchor="end" text-rendering="geometricPrecision"><tspan x="107.45" y="277.3" font-family="Arial" font-weight="bold" font-size="16" fill="rgb(24, 69, 100)">Fe</tspan></text></g><g><text xml:space="preserve" text-anchor="start" text-rendering="geometricPrecision"><tspan x="116.38" y="266.5" font-family="Arial" font-weight="bold" font-size="16" fill="rgb(24, 69, 100)">S</tspan></text></g><g id="Solid"><path d="M108.03 269.35 L108.03 269.35 L107.49 268.41 L106.95 267.48 L115.07 262.78 L115.61 263.72 L116.15 264.65 Z" stroke="rgb(24, 69, 100)" stroke-width="0" fill-rule="evenodd" stroke-linejoin="miter" fill="rgb(24, 69, 100)" shape-rendering="geometricPrecision" /></g><g><text xml:space="preserve" text-anchor="start" text-rendering="geometricPrecision"><tspan x="135.54" y="277.3" font-family="Arial" font-weight="bold" font-size="16" fill="rgb(24, 69, 100)">Fe</tspan></text></g><g id="Solid"><path d="M127.15 264.59 L127.15 264.59 L127.69 263.65 L128.23 262.72 L135.95 267.18 L135.41 268.11 L134.87 269.05 Z" stroke="rgb(24, 69, 100)" stroke-width="0" fill-rule="evenodd" stroke-linejoin="miter" fill="rgb(24, 69, 100)" shape-rendering="geometricPrecision" /></g><g><text xml:space="preserve" text-anchor="start" text-rendering="geometricPrecision"><tspan x="116.38" y="288.1" font-family="Arial" font-weight="bold" font-size="16" fill="rgb(24, 69, 100)">S</tspan></text></g><g id="WedgeBegin"><path d="M107.75 274.99 L107.75 274.99 L108.29 274.05 L108.83 273.12 L117.36 276.17 L116.01 278.51 L114.66 280.85 Z" stroke="rgb(24, 69, 100)" stroke-width="0" fill-rule="evenodd" stroke-linejoin="miter" fill="rgb(24, 69, 100)" shape-rendering="geometricPrecision" /></g><g id="WedgeBegin"><path d="M134.87 272.95 L134.87 272.95 L135.41 273.89 L135.95 274.82 L128.74 280.86 L127.39 278.52 L126.04 276.18 Z" stroke="rgb(24, 69, 100)" stroke-width="0" fill-rule="evenodd" stroke-linejoin="miter" fill="rgb(24, 69, 100)" shape-rendering="geometricPrecision" /></g><g><text xml:space="preserve" text-anchor="start" text-rendering="geometricPrecision"><tspan x="72.87" y="302.51" font-family="Arial" font-weight="bold" font-size="16" fill="rgb(24, 69, 100)">S</tspan></text></g><g id="Solid"><path d="M88.06 276.96 L88.06 276.96 L89 277.5 L89.94 278.04 L82.83 290.35 L81.89 289.81 L80.96 289.27 Z" stroke="rgb(24, 69, 100)" stroke-width="0" fill-rule="evenodd" stroke-linejoin="miter" fill="rgb(24, 69, 100)" shape-rendering="geometricPrecision" /></g><g><text xml:space="preserve" text-anchor="start" text-rendering="geometricPrecision"><tspan x="72.67" y="251.3" font-family="Arial" font-weight="bold" font-size="16" fill="rgb(24, 69, 100)">S</tspan></text></g><g id="Solid"><path d="M81.44 253.13 L81.44 253.13 L82.38 252.59 L83.31 252.05 L89.74 263.17 L88.8 263.71 L87.86 264.25 Z" stroke="rgb(24, 69, 100)" stroke-width="0" fill-rule="evenodd" stroke-linejoin="miter" fill="rgb(24, 69, 100)" shape-rendering="geometricPrecision" /></g><g><text xml:space="preserve" text-anchor="start" text-rendering="geometricPrecision"><tspan x="158.47" y="302.51" font-family="Arial" font-weight="bold" font-size="16" fill="rgb(24, 69, 100)">S</tspan></text></g><g id="Solid"><path d="M152.06 278.04 L152.06 278.04 L153 277.5 L153.94 276.96 L160.99 289.17 L160.05 289.71 L159.12 290.25 Z" stroke="rgb(24, 69, 100)" stroke-width="0" fill-rule="evenodd" stroke-linejoin="miter" fill="rgb(24, 69, 100)" shape-rendering="geometricPrecision" /></g><g><text xml:space="preserve" text-anchor="start" text-rendering="geometricPrecision"><tspan x="158.47" y="251.59" font-family="Arial" font-weight="bold" font-size="16" fill="rgb(24, 69, 100)">S</tspan></text></g><g id="Solid"><path d="M153.94 264.54 L153.94 264.54 L153 264 L152.06 263.46 L158.54 252.25 L159.47 252.79 L160.41 253.33 Z" stroke="rgb(24, 69, 100)" stroke-width="0" fill-rule="evenodd" stroke-linejoin="miter" fill="rgb(24, 69, 100)" shape-rendering="geometricPrecision" /></g><g id="Solid"><path d="M72.3 243.92 L72.3 243.92 L72.3 245 L72.3 246.08 L56.4 246.08 L56.4 245 L56.4 243.92 Z" stroke="rgb(24, 69, 100)" stroke-width="0" fill-rule="evenodd" stroke-linejoin="miter" fill="rgb(24, 69, 100)" shape-rendering="geometricPrecision" /></g><g id="Solid"><path d="M72.5 295.13 L72.5 295.13 L72.5 296.21 L72.5 297.29 L56.6 297.29 L56.6 296.21 L56.6 295.13 Z" stroke="rgb(24, 69, 100)" stroke-width="0" fill-rule="evenodd" stroke-linejoin="miter" fill="rgb(24, 69, 100)" shape-rendering="geometricPrecision" /></g><g id="Solid"><path d="M169.5 246.37 L169.5 246.37 L169.5 245.29 L169.5 244.21 L185.4 244.21 L185.4 245.29 L185.4 246.37 Z" stroke="rgb(24, 69, 100)" stroke-width="0" fill-rule="evenodd" stroke-linejoin="miter" fill="rgb(24, 69, 100)" shape-rendering="geometricPrecision" /></g><g id="Solid"><path d="M169.4 297.29 L169.4 297.29 L169.4 296.21 L169.4 295.13 L185.4 295.13 L185.4 296.21 L185.4 297.29 Z" stroke="rgb(24, 69, 100)" stroke-width="0" fill-rule="evenodd" stroke-linejoin="miter" fill="rgb(24, 69, 100)" shape-rendering="geometricPrecision" /></g></g></g></svg>