<?xml version="1.0"?><svg xmlns="http://www.w3.org/2000/svg" xmlns:xlink="http://www.w3.org/1999/xlink" viewBox="66.75 47.33 119.47 39.58" preserveAspectRatio="xMidYMid" width="100%" height="100%"><clipPath id="420"><rect x="1.08" y="1.08" width="537.84" height="717.59" /></clipPath><g id="drawing"><rect x="66.75" y="47.33" width="100%" height="100%" fill="rgb(255, 255, 255)" /><g id="page" clip-path="url(#420)"><g id="Solid"><path d="M93.32 67.12 L93.32 67.12 L94.57 67.12 L95.82 67.12 L105.99 84.75 L105.37 85.83 L104.75 86.91 Z" stroke="rgb(24, 69, 100)" stroke-width="0" fill-rule="evenodd" stroke-linejoin="miter" fill="rgb(24, 69, 100)" shape-rendering="geometricPrecision" /></g><g id="Solid"><path d="M104.75 86.91 L104.75 86.91 L105.37 85.83 L105.99 84.75 L126.35 84.75 L126.97 85.83 L127.59 86.91 Z" stroke="rgb(24, 69, 100)" stroke-width="0" fill-rule="evenodd" stroke-linejoin="miter" fill="rgb(24, 69, 100)" shape-rendering="geometricPrecision" /><line x1="108.49" y1="80.43" x2="123.85" y2="80.43" stroke="rgb(24, 69, 100)" stroke-width="2.16" shape-rendering="auto" /></g><g id="Solid"><path d="M127.59 86.91 L127.59 86.91 L126.97 85.83 L126.35 84.75 L136.52 67.12 L137.77 67.12 L139.02 67.12 Z" stroke="rgb(24, 69, 100)" stroke-width="0" fill-rule="evenodd" stroke-linejoin="miter" fill="rgb(24, 69, 100)" shape-rendering="geometricPrecision" /></g><g id="Solid"><path d="M139.02 67.12 L139.02 67.12 L137.77 67.12 L136.52 67.12 L126.35 49.49 L126.97 48.41 L127.59 47.33 Z" stroke="rgb(24, 69, 100)" stroke-width="0" fill-rule="evenodd" stroke-linejoin="miter" fill="rgb(24, 69, 100)" shape-rendering="geometricPrecision" /></g><g id="Solid"><path d="M127.59 47.33 L127.59 47.33 L126.97 48.41 L126.35 49.49 L105.99 49.49 L105.37 48.41 L104.75 47.33 Z" stroke="rgb(24, 69, 100)" stroke-width="0" fill-rule="evenodd" stroke-linejoin="miter" fill="rgb(24, 69, 100)" shape-rendering="geometricPrecision" /><line x1="123.85" y1="53.81" x2="108.49" y2="53.81" stroke="rgb(24, 69, 100)" stroke-width="2.16" shape-rendering="auto" /></g><g id="Solid"><path d="M104.75 47.33 L104.75 47.33 L105.37 48.41 L105.99 49.49 L95.82 67.12 L94.57 67.12 L93.32 67.12 Z" stroke="rgb(24, 69, 100)" stroke-width="0" fill-rule="evenodd" stroke-linejoin="miter" fill="rgb(24, 69, 100)" shape-rendering="geometricPrecision" /></g><g><text xml:space="preserve" text-anchor="start" text-rendering="geometricPrecision"><tspan x="66.75" y="73.42" font-family="Arial" font-weight="bold" font-size="16" fill="rgb(24, 69, 100)">O</tspan></text></g><g id="Solid"><line x1="94.57" y1="69.82" x2="80.2" y2="69.82" stroke="rgb(24, 69, 100)" stroke-width="2.16" shape-rendering="auto" /><path d="M94.26 65.5 L94.26 65.5 L95.5 63.34 L80.2 63.34 L80.2 65.5 Z" stroke="rgb(24, 69, 100)" stroke-width="0" fill-rule="evenodd" stroke-linejoin="miter" fill="rgb(24, 69, 100)" shape-rendering="geometricPrecision" /><path d="M95.5 70.9 L95.5 70.9 L94.26 68.74 L80.2 68.74 L80.2 70.9 Z" stroke="rgb(24, 69, 100)" stroke-width="0" fill-rule="evenodd" stroke-linejoin="miter" fill="rgb(24, 69, 100)" shape-rendering="geometricPrecision" /></g><g><text xml:space="preserve" text-anchor="start" text-rendering="geometricPrecision"><tspan x="153.15" y="73.42" font-family="Arial" font-weight="bold" font-size="16" fill="rgb(24, 69, 100)">O</tspan></text></g><g id="Solid"><line x1="137.77" y1="64.42" x2="152.3" y2="64.42" stroke="rgb(24, 69, 100)" stroke-width="2.16" shape-rendering="auto" /><path d="M138.08 68.74 L138.08 68.74 L136.84 70.9 L152.3 70.9 L152.3 68.74 Z" stroke="rgb(24, 69, 100)" stroke-width="0" fill-rule="evenodd" stroke-linejoin="miter" fill="rgb(24, 69, 100)" shape-rendering="geometricPrecision" /><path d="M136.84 63.34 L136.84 63.34 L138.08 65.5 L152.3 65.5 L152.3 63.34 Z" stroke="rgb(24, 69, 100)" stroke-width="0" fill-rule="evenodd" stroke-linejoin="miter" fill="rgb(24, 69, 100)" shape-rendering="geometricPrecision" /></g><g id="Oval"><circle cx="169.8" cy="56.25" r="3.42041109233367" stroke="rgb(24, 69, 100)" stroke-width="2.16" fill="rgb(24, 69, 100)" /></g><g id="Charge139"><line x1="177" y1="56.25" x2="184.5" y2="56.25" stroke="rgb(24, 69, 100)" stroke-width="1.728" shape-rendering="auto" /></g></g></g></svg>