<?xml version="1.0"?><svg xmlns="http://www.w3.org/2000/svg" xmlns:xlink="http://www.w3.org/1999/xlink" viewBox="208.52 167.43 154.88 50.36" preserveAspectRatio="xMidYMid" width="100%" height="100%"><clipPath id="420"><rect x="1.08" y="1.08" width="537.84" height="717.59" /></clipPath><g id="drawing"><rect x="208.52" y="167.43" width="100%" height="100%" fill="rgb(255, 255, 255)" /><g id="page" clip-path="url(#420)"><g><text xml:space="preserve" text-anchor="start" text-rendering="geometricPrecision"><tspan x="324.67" y="206.79" font-family="Arial" font-weight="bold" font-size="16" fill="rgb(24, 69, 100)">O</tspan></text></g><g><text xml:space="preserve" text-anchor="end" text-rendering="geometricPrecision"><tspan x="316.64" y="217.59" font-family="Arial" font-weight="bold" font-size="16" fill="rgb(24, 69, 100)">Fe</tspan></text></g><g id="Solid"><path d="M323.57 203.47 L323.57 203.47 L324.11 204.41 L324.65 205.34 L317.23 209.63 L316.69 208.69 L316.15 207.76 Z" stroke="rgb(24, 69, 100)" stroke-width="0" fill-rule="evenodd" stroke-linejoin="miter" fill="rgb(24, 69, 100)" shape-rendering="geometricPrecision" /></g><g><text xml:space="preserve" text-anchor="start" text-rendering="geometricPrecision"><tspan x="344.73" y="217.59" font-family="Arial" font-weight="bold" font-size="16" fill="rgb(24, 69, 100)">Fe</tspan></text></g><g id="Solid"><path d="M337.25 205.4 L337.25 205.4 L337.79 204.46 L338.33 203.53 L345.15 207.47 L344.61 208.41 L344.07 209.34 Z" stroke="rgb(24, 69, 100)" stroke-width="0" fill-rule="evenodd" stroke-linejoin="miter" fill="rgb(24, 69, 100)" shape-rendering="geometricPrecision" /></g><g id="Solid"><path d="M241.24 188.3 L241.24 188.3 L241.86 187.22 L243.11 187.22 L253.28 204.84 L252.66 205.92 L252.04 207 Z" stroke="rgb(24, 69, 100)" stroke-width="0" fill-rule="evenodd" stroke-linejoin="miter" fill="rgb(24, 69, 100)" shape-rendering="geometricPrecision" /></g><g id="Solid"><path d="M252.04 207 L252.04 207 L252.66 205.92 L253.28 204.84 L273.64 204.84 L274.26 205.92 L274.88 207 Z" stroke="rgb(24, 69, 100)" stroke-width="0" fill-rule="evenodd" stroke-linejoin="miter" fill="rgb(24, 69, 100)" shape-rendering="geometricPrecision" /></g><g id="Solid"><path d="M274.88 207 L274.88 207 L274.26 205.92 L273.64 204.84 L283.81 187.22 L285.06 187.22 L285.68 188.3 Z" stroke="rgb(24, 69, 100)" stroke-width="0" fill-rule="evenodd" stroke-linejoin="miter" fill="rgb(24, 69, 100)" shape-rendering="geometricPrecision" /></g><g id="Solid"><path d="M285.68 186.14 L285.68 186.14 L285.06 187.22 L283.81 187.22 L273.64 169.59 L274.26 168.51 L274.88 167.43 Z" stroke="rgb(24, 69, 100)" stroke-width="0" fill-rule="evenodd" stroke-linejoin="miter" fill="rgb(24, 69, 100)" shape-rendering="geometricPrecision" /></g><g id="Solid"><path d="M274.88 167.43 L274.88 167.43 L274.26 168.51 L273.64 169.59 L253.28 169.59 L252.66 168.51 L252.04 167.43 Z" stroke="rgb(24, 69, 100)" stroke-width="0" fill-rule="evenodd" stroke-linejoin="miter" fill="rgb(24, 69, 100)" shape-rendering="geometricPrecision" /></g><g id="Solid"><path d="M252.04 167.43 L252.04 167.43 L252.66 168.51 L253.28 169.59 L243.11 187.22 L241.86 187.22 L241.24 186.14 Z" stroke="rgb(24, 69, 100)" stroke-width="0" fill-rule="evenodd" stroke-linejoin="miter" fill="rgb(24, 69, 100)" shape-rendering="geometricPrecision" /></g><g id="Oval"><circle cx="263.46" cy="187.22" r="12.44" stroke="rgb(24, 69, 100)" stroke-width="2.16" fill="none" /></g><g id="Solid"><path d="M285.68 188.3 L285.68 188.3 L285.06 187.22 L285.68 186.14 L299.6 186.14 L299.6 187.22 L299.6 188.3 Z" stroke="rgb(24, 69, 100)" stroke-width="0" fill-rule="evenodd" stroke-linejoin="miter" fill="rgb(24, 69, 100)" shape-rendering="geometricPrecision" /></g><g><text xml:space="preserve" text-anchor="start" text-rendering="geometricPrecision"><tspan x="300.43" y="193.52" font-family="Arial" font-weight="bold" font-size="16" fill="rgb(24, 69, 100)">O</tspan></text></g><g id="Solid"><path d="M241.24 186.14 L241.24 186.14 L241.86 187.22 L241.24 188.3 L220.88 188.3 L220.26 187.22 L219.64 186.14 Z" stroke="rgb(24, 69, 100)" stroke-width="0" fill-rule="evenodd" stroke-linejoin="miter" fill="rgb(24, 69, 100)" shape-rendering="geometricPrecision" /></g><g id="Solid"><path d="M219.64 186.14 L219.64 186.14 L220.26 187.22 L220.88 188.3 L210.4 206.46 L209.46 205.92 L208.52 205.38 Z" stroke="rgb(24, 69, 100)" stroke-width="0" fill-rule="evenodd" stroke-linejoin="miter" fill="rgb(24, 69, 100)" shape-rendering="geometricPrecision" /></g><g id="Oval"><circle cx="317.16" cy="175.97" r="3.41288326133676" stroke="rgb(24, 69, 100)" stroke-width="2.16" fill="rgb(24, 69, 100)" /></g></g></g></svg>